<svg xmlns="http://www.w3.org/2000/svg" viewBox="0 0 48 48">
  <circle cx="24" cy="24" r="22.7" fill="#fff" stroke="#00454d" stroke-width="2.6"/>
  <path fill="#00454d" d="M32.92 16.28c-.26-.76-.98-1.302-1.83-1.302h-3.223V12.4h-7.734v2.578H16.91c-.85 0-1.558.54-1.83 1.302L12.4 24v10.31c0 .71.58 1.29 1.29 1.29h1.288c.71 0 1.29-.58 1.29-1.29v-1.288h15.465v1.29c0 .708.58 1.288 1.29 1.288h1.288c.71 0 1.29-.58 1.29-1.29V24l-2.68-7.72zM16.91 29.156c-1.07 0-1.932-.864-1.932-1.934 0-1.07.863-1.933 1.933-1.933s1.94.86 1.94 1.93c0 1.07-.86 1.93-1.93 1.93zm14.18 0c-1.07 0-1.934-.864-1.934-1.934 0-1.07.863-1.933 1.933-1.933s1.93.86 1.93 1.93c0 1.07-.87 1.93-1.94 1.93zM14.977 22.71l1.933-5.8h14.18l1.932 5.8H14.978z"/>
  <circle cx="38.4" cy="38.4" r="9.6" fill="#ef2c2e"/>
  <path fill="#fff" d="M35.042 42.152c-.563 0-1.102-.096-1.616-.287-.514-.19-.99-.485-1.428-.88l.772-.918c.354.306.712.54 1.073.704.36.17.772.25 1.23.25.396 0 .71-.08.943-.25.233-.16.35-.39.35-.66v-.02c0-.13-.024-.25-.07-.35-.044-.1-.128-.19-.25-.28-.122-.09-.29-.17-.5-.25-.213-.07-.49-.15-.832-.23-.39-.09-.736-.19-1.04-.3-.302-.11-.556-.25-.762-.41-.205-.16-.362-.36-.47-.6-.108-.23-.162-.52-.162-.85v-.02c0-.32.062-.6.186-.86s.295-.49.51-.67c.218-.18.48-.33.785-.43.31-.1.64-.16 1-.16.54 0 1.02.08 1.45.24.43.16.83.39 1.21.69l-.68.97c-.33-.24-.66-.43-.99-.56-.32-.13-.65-.19-.99-.19-.37 0-.66.09-.87.25-.2.17-.31.37-.31.62v.02c0 .14.03.26.08.37.05.11.14.21.27.29.13.09.31.17.54.25.23.08.51.16.86.24.39.1.73.21 1.02.32.3.12.54.26.74.43.2.17.35.37.45.6.1.23.15.49.15.79 0 .34-.06.65-.19.92s-.3.5-.53.69c-.23.19-.5.33-.82.43-.32.1-.67.15-1.05.15m6.71.02c-.57 0-1.08-.09-1.55-.28-.46-.19-.86-.46-1.19-.79-.33-.34-.58-.74-.76-1.19-.18-.46-.27-.95-.27-1.49v-.02c0-.51.09-.99.27-1.45.19-.46.45-.86.79-1.21.34-.34.74-.62 1.2-.82.46-.2.97-.3 1.52-.3.32 0 .61.02.87.07.26.04.5.11.72.19.22.08.43.18.63.3s.39.26.58.42l-.81.97c-.14-.12-.28-.23-.43-.32-.15-.1-.3-.18-.46-.25-.16-.07-.34-.12-.53-.16-.19-.04-.4-.06-.63-.06-.33 0-.64.07-.93.21-.29.14-.54.32-.75.56-.21.23-.38.5-.5.82-.12.31-.18.64-.18.99v.02c0 .38.06.72.18 1.04.12.32.29.6.51.83.22.23.48.41.78.55.3.13.64.2 1.02.2.35 0 .67-.05.97-.15.31-.1.57-.23.79-.4v-1.4h-1.9v-1.11h3.1v3.07c-.18.15-.38.3-.6.44-.21.14-.45.26-.7.37-.25.11-.53.19-.82.25-.29.06-.59.09-.91.09"/>
</svg>
